<svg xmlns="http://www.w3.org/2000/svg" xmlns:xlink="http://www.w3.org/1999/xlink" aria-hidden="true" role="img" class="iconify iconify--logos" width="32" height="32" preserveAspectRatio="xMidYMid meet" viewBox="0 0 256 257"><defs><linearGradient id="IconifyId1813088fe1fbc5321" x1="-.828%" x2="57.636%" y1="7.652%" y2="78.411%"><stop offset="0" stop-color="#41D1FF"></stop><stop offset="1" stop-color="#BD34FE"></stop></linearGradient><linearGradient id="IconifyId1813088fe1fbc5322" x1="43.376%" x2="50.325%" y1="2.242%" y2="89.03%"><stop offset="0" stop-color="#FFEA83"></stop><stop offset="1" stop-color="#FFDD35"></stop></linearGradient></defs><path fill="url(#IconifyId1813088fe1fbc5321)" d="M255.153 151.09L132.893 255.441a12.405 12.405 0 0 1-14.7 0L1.734 149.388a12.41 12.41 0 0 1-1.59-16.035l46.495-62.936a12.423 12.423 0 0 1 15.719-4.013l82.828 39.899c4.662 2.247 10.167 1.487 14.105-1.948L220.457 4.716a12.41 12.41 0 0 1 19.344 3.737l16.918 42.104a12.41 12.41 0 0 1-1.566 12.7L255.153 151.09z"></path><path fill="url(#IconifyId1813088fe1fbc5322)" d="M185.432 27.271l-50.627 44.156a12.41 12.41 0 0 0-3.903 14.12l38.741 81.33a12.41 12.41 0 0 0 17.612 5.5l77.73-41.054a12.41 12.41 0 0 0 5.656-14.019l-26.622-105.772a12.41 12.41 0 0 0-14.368-8.995l-44.22 4.734z"></path></svg>
